<?xml version="1.0" encoding="utf-8"?>
<!-- Generator: Adobe Illustrator 19.1.0, SVG Export Plug-In . SVG Version: 6.00 Build 0)  -->
<svg version="1.1" id="Livello_1" xmlns:sketch="http://www.bohemiancoding.com/sketch/ns"
	 xmlns="http://www.w3.org/2000/svg" xmlns:xlink="http://www.w3.org/1999/xlink" x="0px" y="0px" viewBox="-255 347 100 100"
	 style="enable-background:new -255 347 100 100;" xml:space="preserve">
<path d="M-239,407.5c-5.8,0-10.6,4.7-10.6,10.5s4.7,10.5,10.6,10.5c5.9,0,10.6-4.7,10.6-10.5S-233.2,407.5-239,407.5z"/>
<path d="M-171,407.5c-5.8,0-10.6,4.7-10.6,10.5s4.7,10.5,10.6,10.5c5.9,0,10.6-4.7,10.6-10.5S-165.2,407.5-171,407.5z"/>
<path d="M-205,407.5c-5.8,0-10.6,4.7-10.6,10.5s4.7,10.5,10.6,10.5c5.9,0,10.6-4.7,10.6-10.5S-199.2,407.5-205,407.5z"/>
</svg>
