<?xml version="1.0" encoding="utf-8"?>
<!-- Generator: Adobe Illustrator 19.1.0, SVG Export Plug-In . SVG Version: 6.00 Build 0)  -->
<svg version="1.1" id="Livello_1" xmlns:sketch="http://www.bohemiancoding.com/sketch/ns"
	 xmlns="http://www.w3.org/2000/svg" xmlns:xlink="http://www.w3.org/1999/xlink" x="0px" y="0px" viewBox="-255 347 100 100"
	 style="enable-background:new -255 347 100 100;" xml:space="preserve">
<path id="SVGID_3_" d="M-182.8,412.3c-2.7,0-4.9-2.2-4.9-4.9c0-2.7,2.2-4.9,4.9-4.9s4.9,2.2,4.9,4.9
	C-177.9,410.1-180.1,412.3-182.8,412.3z M-180.3,382.8h-50.2c-2.1,0-4.1-0.4-4.1-2.5l54.2-2.5v-4.9c0-4.1-3.3-4.9-7.4-4.9l-44.3,7.4
	c-4,0.9-5,2.6-5,4.9v44.3c0,4.1,3.3,7.4,7.4,7.4h49.2c4.1,0,7.4-3.3,7.4-7.4v-34.5C-172.9,386.1-176.3,382.8-180.3,382.8z"/>
</svg>
